<?xml version="1.0" standalone="no"?><!DOCTYPE svg PUBLIC "-//W3C//DTD SVG 1.1//EN" "http://www.w3.org/Graphics/SVG/1.1/DTD/svg11.dtd"><svg t="1759631220063" class="icon" viewBox="0 0 1024 1024" version="1.1" xmlns="http://www.w3.org/2000/svg" p-id="24691" xmlns:xlink="http://www.w3.org/1999/xlink" width="200" height="200"><path d="M940.823273 907.636364H83.176727a34.909091 34.909091 0 0 0 0 69.818181h857.646546a34.909091 34.909091 0 0 0 0-69.818181zM487.330909 818.594909a34.862545 34.862545 0 0 0 38.074182 7.540364 35.374545 35.374545 0 0 0 11.357091-7.540364l348.206545-348.16a34.909091 34.909091 0 1 0-49.384727-49.384727l-288.628364 288.581818V81.454545a34.909091 34.909091 0 1 0-69.864727 0v628.177455l-288.581818-288.581818a34.909091 34.909091 0 1 0-49.384727 49.384727l348.206545 348.16z" fill="#231815" p-id="24692"></path></svg>